<svg width="101" height="99" viewBox="0 0 101 99" fill="none" xmlns="http://www.w3.org/2000/svg">
<path fill-rule="evenodd" clip-rule="evenodd" d="M99.1818 85.7733C96.0643 95.0595 83.85 99.6927 75.1236 98.9205C63.2056 97.8645 50.2372 91.6671 40.3931 84.8427C25.9231 74.8107 12.3689 59.2941 4.47073 42.8271C-1.1112 31.1913 -2.3636 16.8825 5.9386 6.27632C9.009 2.35592 12.3353 0.263721 17.3179 0.0195214C24.2398 -0.310479 25.2094 3.57032 27.5863 9.61592C29.3571 14.1369 31.7205 18.7503 33.0403 23.4363C35.5114 32.1813 26.8725 32.5443 25.7817 39.6921C25.1084 44.1999 30.6769 50.2455 33.1951 53.4597C38.0491 59.7197 43.9941 65.0889 50.7557 69.3195C54.5937 71.6889 60.7749 75.9591 65.165 73.6029C71.9253 69.9729 71.2923 58.7991 80.7392 62.5809C85.6343 64.5345 90.3746 67.3527 95.0475 69.8211C102.272 73.6293 101.936 77.5761 99.1818 85.7733C101.242 79.6485 97.1214 91.8981 99.1818 85.7733Z" fill="#81AA76"/>
</svg>
