<svg width="138" height="84" viewBox="0 0 138 84" fill="none" xmlns="http://www.w3.org/2000/svg">
<path d="M71.5013 50.1554L16.7756 28.9567C13.9464 27.8178 11.9651 26.0482 11.2585 24.0288C10.5518 22.0095 11.1763 19.9019 12.9974 18.1601C14.8186 16.4182 17.6907 15.1814 20.9953 14.7159C24.2999 14.2504 27.7727 14.5935 30.6658 15.6713L70.8151 31.2226L106.864 15.8624C109.676 14.7023 113.126 14.2622 116.467 14.6371C119.808 15.012 122.773 16.1718 124.721 17.8661C126.669 19.5604 127.444 21.6531 126.878 23.6923C126.313 25.7314 124.452 27.5534 121.699 28.7646L71.5013 50.1554Z" fill="#EA4435"/>
<path d="M118.594 69.5625H101.344L101.344 22.3125C101.344 20.2239 102.707 18.2209 105.133 16.744C107.559 15.2672 110.85 14.4375 114.281 14.4375C117.712 14.4375 121.003 15.2672 123.429 16.744C125.856 18.2209 127.219 20.2239 127.219 22.3125L127.219 64.3125C127.219 65.7049 126.31 67.0402 124.693 68.0248C123.075 69.0094 120.881 69.5625 118.594 69.5625Z" fill="#00AC47"/>
<path d="M127.03 21.1722C126.992 21.0147 126.995 20.8538 126.941 20.6965C126.858 20.4555 126.704 20.2329 126.586 20.0004C126.472 19.7342 126.334 19.4719 126.173 19.2147C126.087 19.09 125.954 18.9806 125.856 18.8593C125.588 18.5094 125.277 18.172 124.927 17.85C124.755 17.6975 124.539 17.5675 124.348 17.4231C124.021 17.1607 123.668 16.911 123.29 16.6753C123.003 16.5054 122.676 16.3634 122.364 16.2104C122.033 16.0375 121.687 15.8748 121.329 15.7229C120.987 15.587 120.613 15.4822 120.251 15.3662C119.87 15.2452 119.496 15.1134 119.1 15.0168C118.716 14.9228 118.307 14.863 117.907 14.7913C117.506 14.7197 117.108 14.6338 116.696 14.5874C116.187 14.5375 115.672 14.506 115.157 14.4929C114.829 14.4789 114.505 14.444 114.176 14.4456C113.566 14.4564 112.958 14.4937 112.357 14.5572C112.114 14.5792 111.87 14.5774 111.629 14.6078C110.815 14.7592 110.003 14.9149 109.194 15.0751C108.972 15.1328 108.778 15.2187 108.562 15.2838C106.372 15.9058 104.525 16.9006 103.244 18.1479C101.963 19.3952 101.303 20.8417 101.344 22.3125V37.4377L121.699 28.7639C123.698 27.9474 125.265 26.7957 126.211 25.4482C127.157 24.1008 127.442 22.6158 127.03 21.1722Z" fill="#FFBA00"/>
<path d="M23.7188 14.4375C27.15 14.4375 30.4407 15.2672 32.8669 16.744C35.2932 18.2209 36.6562 20.2239 36.6562 22.3125V69.5625H19.4062C17.1188 69.5625 14.925 69.0094 13.3075 68.0248C11.69 67.0402 10.7813 65.7049 10.7812 64.3125V22.3125C10.7813 20.2239 12.1443 18.2209 14.5706 16.744C16.9968 15.2672 20.2875 14.4375 23.7188 14.4375Z" fill="#4285F4"/>
<path d="M10.9706 21.1723C11.0085 21.0148 11.0055 20.8539 11.0594 20.6966C11.1422 20.4557 11.2962 20.2331 11.4143 20.0005C11.5289 19.7344 11.6668 19.4722 11.8275 19.2151C11.9137 19.0904 12.0465 18.9809 12.1449 18.8597C12.413 18.5096 12.7235 18.1722 13.0738 17.8501C13.2463 17.6976 13.4619 17.5676 13.6525 17.4233C13.9795 17.1609 14.3329 16.9111 14.7108 16.6754C14.9976 16.5056 15.3245 16.3636 15.6367 16.2105C15.968 16.0375 16.3134 15.8748 16.6717 15.7231C17.0137 15.5871 17.388 15.4823 17.7498 15.3663C18.1237 15.2376 18.508 15.1204 18.9013 15.0151C19.2851 14.9211 19.6939 14.8613 20.0941 14.7896C20.4943 14.7179 20.8932 14.6321 21.3046 14.5856C21.8143 14.5358 22.3284 14.5043 22.8442 14.4911C23.1719 14.4772 23.4958 14.4423 23.8244 14.4439C24.4345 14.4547 25.0425 14.492 25.6439 14.5555C25.8867 14.5775 26.1312 14.5757 26.3727 14.6061C26.7901 14.6709 27.2018 14.7487 27.606 14.8392C28.0126 14.905 28.4134 14.9831 28.8071 15.0734C29.0287 15.1311 29.2232 15.217 29.4389 15.2821C29.9979 15.4419 30.5372 15.6262 31.0526 15.8333C32.7803 16.5554 34.1934 17.5227 35.1697 18.6515C36.1459 19.7804 36.6562 21.0369 36.6563 22.3126V37.4378L16.3013 28.7646C14.3027 27.9478 12.7358 26.7961 11.7897 25.4487C10.8437 24.1013 10.5592 22.616 10.9706 21.1723Z" fill="#C52528"/>
</svg>
