<svg width="100px" height="100px" viewBox="0 0 102 93" fill="none" xmlns="http://www.w3.org/2000/svg">
<path d="M25.878 0H23.142C20.862 0.104 17.898 0.208 16.644 0.52C14.592 0.936 12.654 1.456 11.058 2.184C9.234 3.016 7.524 4.16 6.042 5.512C4.56 6.864 3.42 8.32 2.394 10.088C1.596 11.544 0.912 13.312 0.57 15.08C0.342 16.328 0.114 19.032 0 21.112V71.76C0.114 73.84 0.228 76.544 0.57 77.688C1.026 79.56 1.596 81.328 2.394 82.784C3.306 84.448 4.56 86.008 6.042 87.36C7.524 88.712 9.12 89.752 11.058 90.688C12.654 91.416 14.592 92.04 16.53 92.352C17.898 92.56 20.862 92.768 23.142 92.872H78.66C80.94 92.768 83.904 92.664 85.158 92.352C87.21 91.936 89.148 91.416 90.744 90.688C92.568 89.856 94.278 88.712 95.76 87.36C97.242 86.008 98.382 84.552 99.408 82.784C100.206 81.328 100.89 79.56 101.232 77.792C101.46 76.544 101.688 73.84 101.802 71.76V21.112C101.688 19.032 101.574 16.328 101.232 15.184C100.776 13.312 100.206 11.544 99.408 10.088C98.496 8.424 97.242 6.864 95.76 5.512C94.278 4.16 92.682 3.12 90.744 2.184C89.148 1.456 87.21 0.832 85.272 0.52C83.904 0.312 80.94 0.104 78.66 0H25.878Z" fill="url(#paint0_linear_196_16)"/>
<path d="M69.426 51.376C68.514 50.96 63.954 48.984 63.156 48.672C62.358 48.36 61.674 48.256 61.104 49.088C60.534 49.92 58.71 51.792 58.254 52.312C57.684 52.832 57.228 52.936 56.316 52.52C55.404 52.104 52.44 51.272 48.906 48.464C46.17 46.28 44.346 43.576 43.776 42.744C43.206 41.912 43.776 41.496 44.232 41.08C44.688 40.664 45.144 40.144 45.6 39.624C46.056 39.104 46.17 38.792 46.512 38.272C46.854 37.752 46.626 37.232 46.398 36.816C46.17 36.4 44.346 32.344 43.548 30.68C42.75 29.12 42.066 29.328 41.496 29.224H39.786C39.216 29.224 38.19 29.432 37.392 30.264C36.594 31.096 34.2 33.072 34.2 37.128C34.2 41.184 37.506 45.032 37.962 45.656C38.418 46.176 44.46 54.496 53.58 58.032C55.746 58.864 57.456 59.384 58.824 59.8C60.99 60.424 63.042 60.32 64.638 60.112C66.348 59.904 70.11 58.136 70.794 56.264C71.592 54.392 71.592 52.728 71.364 52.416C70.908 52 70.338 51.792 69.426 51.376ZM51.984 72.8C46.512 72.8 41.268 71.448 36.594 68.952L35.454 68.328L24.054 71.032L27.132 60.944L26.448 59.904C23.484 55.536 21.888 50.544 21.888 45.344C21.888 30.264 35.454 17.992 52.098 17.992C59.964 17.992 67.602 20.8 73.302 26C79.002 31.2 82.08 38.064 82.08 45.344C82.08 60.424 68.514 72.8 51.984 72.8ZM77.634 22.048C70.794 15.808 61.674 12.376 51.984 12.376C32.034 12.376 15.732 27.144 15.732 45.344C15.732 51.168 17.442 56.784 20.52 61.776L15.39 78.832L34.542 74.256C39.786 76.856 45.828 78.312 51.87 78.312C71.82 78.312 88.122 63.544 88.122 45.344C88.236 36.608 84.474 28.288 77.634 22.048Z" fill="white"/>
<defs>
<linearGradient id="paint0_linear_196_16" x1="50.9352" y1="0.0208" x2="50.9352" y2="92.8096" gradientUnits="userSpaceOnUse">
<stop stop-color="#62FA7F"/>
<stop offset="0.686" stop-color="#22CC40"/>
<stop offset="1" stop-color="#05B723"/>
</linearGradient>
</defs>
</svg>
